<svg width="144" height="50" viewBox="0 0 144 50" fill="none" xmlns="http://www.w3.org/2000/svg">
<g clip-path="url(#clip0_563_17781)">
<path d="M5.696 43.5V9.228H14.96V36.012H28.16V43.5H5.696ZM64.76 26.316C64.76 28.972 64.44 31.388 63.8 33.564C63.16 35.708 62.168 37.564 60.824 39.132C59.48 40.7 57.752 41.9 55.64 42.732C53.56 43.564 51.048 43.98 48.104 43.98C45.224 43.98 42.728 43.564 40.616 42.732C38.536 41.9 36.808 40.7 35.432 39.132C34.088 37.564 33.08 35.708 32.408 33.564C31.768 31.388 31.448 28.956 31.448 26.268C31.448 22.716 32.04 19.628 33.224 17.004C34.408 14.348 36.232 12.3 38.696 10.86C41.16 9.42 44.312 8.7 48.152 8.7C52.056 8.7 55.224 9.436 57.656 10.908C60.12 12.348 61.912 14.396 63.032 17.052C64.184 19.676 64.76 22.764 64.76 26.316ZM41.192 26.316C41.192 28.364 41.416 30.14 41.864 31.644C42.344 33.116 43.096 34.252 44.12 35.052C45.144 35.852 46.472 36.252 48.104 36.252C49.8 36.252 51.144 35.852 52.136 35.052C53.16 34.252 53.896 33.116 54.344 31.644C54.792 30.14 55.016 28.364 55.016 26.316C55.016 23.212 54.504 20.764 53.48 18.972C52.456 17.18 50.68 16.284 48.152 16.284C46.488 16.284 45.144 16.7 44.12 17.532C43.096 18.332 42.344 19.484 41.864 20.988C41.416 22.46 41.192 24.236 41.192 26.316ZM84.722 23.436H99.506V41.916C97.746 42.524 95.714 43.02 93.41 43.404C91.138 43.788 88.754 43.98 86.258 43.98C82.962 43.98 80.066 43.34 77.57 42.06C75.106 40.78 73.17 38.828 71.762 36.204C70.386 33.58 69.698 30.268 69.698 26.268C69.698 22.684 70.386 19.58 71.762 16.956C73.138 14.332 75.154 12.316 77.81 10.908C80.498 9.468 83.794 8.748 87.698 8.748C89.842 8.748 91.874 8.956 93.794 9.372C95.714 9.756 97.378 10.268 98.786 10.908L95.858 18.156C94.642 17.548 93.362 17.1 92.018 16.812C90.674 16.492 89.25 16.332 87.746 16.332C85.698 16.332 84.05 16.796 82.802 17.724C81.554 18.652 80.642 19.884 80.066 21.42C79.522 22.956 79.25 24.652 79.25 26.508C79.25 28.62 79.554 30.412 80.162 31.884C80.77 33.356 81.65 34.476 82.802 35.244C83.954 35.98 85.362 36.348 87.026 36.348C87.41 36.348 87.842 36.332 88.322 36.3C88.802 36.268 89.266 36.22 89.714 36.156C90.194 36.092 90.562 36.028 90.818 35.964V30.588H84.722V23.436ZM138.541 26.316C138.541 28.972 138.221 31.388 137.581 33.564C136.941 35.708 135.949 37.564 134.605 39.132C133.261 40.7 131.533 41.9 129.421 42.732C127.341 43.564 124.829 43.98 121.885 43.98C119.005 43.98 116.509 43.564 114.397 42.732C112.317 41.9 110.589 40.7 109.213 39.132C107.869 37.564 106.861 35.708 106.189 33.564C105.549 31.388 105.229 28.956 105.229 26.268C105.229 22.716 105.821 19.628 107.005 17.004C108.189 14.348 110.013 12.3 112.477 10.86C114.941 9.42 118.093 8.7 121.933 8.7C125.837 8.7 129.005 9.436 131.437 10.908C133.901 12.348 135.693 14.396 136.813 17.052C137.965 19.676 138.541 22.764 138.541 26.316ZM114.973 26.316C114.973 28.364 115.197 30.14 115.645 31.644C116.125 33.116 116.877 34.252 117.901 35.052C118.925 35.852 120.253 36.252 121.885 36.252C123.581 36.252 124.925 35.852 125.917 35.052C126.941 34.252 127.677 33.116 128.125 31.644C128.573 30.14 128.797 28.364 128.797 26.316C128.797 23.212 128.285 20.764 127.261 18.972C126.237 17.18 124.461 16.284 121.933 16.284C120.269 16.284 118.925 16.7 117.901 17.532C116.877 18.332 116.125 19.484 115.645 20.988C115.197 22.46 114.973 24.236 114.973 26.316Z" fill="url(#paint0_linear_563_17781)"/>
</g>
<defs>
<linearGradient id="paint0_linear_563_17781" x1="13" y1="57.5" x2="122" y2="57.5" gradientUnits="userSpaceOnUse">
<stop stop-color="#FAAC3C"/>
<stop offset="0.442708" stop-color="#F3722C"/>
<stop offset="0.536458" stop-color="#82AFDD"/>
<stop offset="1" stop-color="#4A60AB"/>
</linearGradient>
<clipPath id="clip0_563_17781">
<rect width="144" height="50" fill="white"/>
</clipPath>
</defs>
</svg>
